<svg xmlns="http://www.w3.org/2000/svg" width="21.969" height="27" viewBox="0 0 21.969 27">
  <defs>
    <style>
      .cls-1 {
        fill: #c71b00;
        fill-rule: evenodd;
      }
    </style>
  </defs>
  <path id="Reusable_Shopping_Bag_copy" data-name="Reusable Shopping Bag copy" class="cls-1" d="M566.994,552.04l-1.346-20.42a0.857,0.857,0,0,0-.856-0.8h-3.756v-0.549A4.286,4.286,0,0,0,556.744,526h-1.476a4.286,4.286,0,0,0-4.291,4.272v0.549h-3.756a0.857,0.857,0,0,0-.856.8l-1.349,20.47a0.848,0.848,0,0,0,.23.64,0.861,0.861,0,0,0,.626.27h20.27a0.856,0.856,0,0,0,.858-0.854A0.928,0.928,0,0,0,566.994,552.04Zm-14.3-21.768a2.571,2.571,0,0,1,2.575-2.563h1.476a2.571,2.571,0,0,1,2.575,2.563v0.549h-6.626v-0.549Zm-5.9,21.019,1.236-18.761h2.951v0.763a1.889,1.889,0,1,0,1.717,0V532.53h6.626v0.763a1.889,1.889,0,1,0,1.717,0V532.53h2.952l1.236,18.761H546.789Z" transform="translate(-545.031 -526)"/>
</svg>
