<svg xmlns="http://www.w3.org/2000/svg" width="9" height="9" viewBox="0 0 9 9">
  <defs>
    <style>
      .cls-1 {
        fill: #dbdbdb;
        fill-rule: evenodd;
      }
    </style>
  </defs>
  <path id="Question_Mark_On_A_Circular_Black_Background" data-name="Question Mark On A Circular Black Background" class="cls-1" d="M516.4,1535.24a4.55,4.55,0,0,0-1.638-1.64,4.553,4.553,0,0,0-4.518,0,4.539,4.539,0,0,0-1.637,1.64,4.53,4.53,0,0,0,0,4.52,4.539,4.539,0,0,0,1.637,1.64,4.553,4.553,0,0,0,4.518,0,4.55,4.55,0,0,0,1.638-1.64A4.537,4.537,0,0,0,516.4,1535.24Zm-3.147,5.07a0.2,0.2,0,0,1-.053.14,0.2,0.2,0,0,1-.134.05h-1.125a0.2,0.2,0,0,1-.135-0.05,0.2,0.2,0,0,1-.053-0.14v-1.12a0.2,0.2,0,0,1,.053-0.14,0.2,0.2,0,0,1,.135-0.05h1.125a0.2,0.2,0,0,1,.134.05,0.2,0.2,0,0,1,.053.14v1.12Zm1.427-3.46a1.593,1.593,0,0,1-.164.35,1.314,1.314,0,0,1-.261.29,2.878,2.878,0,0,1-.27.2c-0.066.04-.162,0.1-0.287,0.17a0.943,0.943,0,0,0-.319.29,0.542,0.542,0,0,0-.126.29,0.171,0.171,0,0,1-.052.13,0.174,0.174,0,0,1-.135.06h-1.125a0.193,0.193,0,0,1-.188-0.19v-0.21a1.083,1.083,0,0,1,.308-0.74,2.007,2.007,0,0,1,.677-0.51,1.1,1.1,0,0,0,.4-0.26,0.53,0.53,0,0,0,.117-0.36,0.414,0.414,0,0,0-.22-0.34,0.864,0.864,0,0,0-.5-0.15,0.81,0.81,0,0,0-.5.14,2.856,2.856,0,0,0-.5.53,0.174,0.174,0,0,1-.147.08,0.185,0.185,0,0,1-.111-0.04l-0.774-.59a0.161,0.161,0,0,1-.046-0.24,2.4,2.4,0,0,1,2.173-1.25,2.278,2.278,0,0,1,1.808.92,1.565,1.565,0,0,1,.325.96A1.43,1.43,0,0,1,514.677,1536.85Z" transform="translate(-508 -1533)"/>
</svg>
